<?xml version="1.0" encoding="UTF-8"?>
<svg id="Layer_1" xmlns="http://www.w3.org/2000/svg" version="1.1" viewBox="0 0 435.54 256.46">
  <!-- Generator: Adobe Illustrator 29.4.0, SVG Export Plug-In . SVG Version: 2.1.0 Build 152)  -->
  <defs>
    <style>
      .st0, .st1 {
        fill: none;
      }

      .st0, .st1, .st2, .st3, .st4, .st5 {
        stroke: #231f20;
        stroke-miterlimit: 10;
      }

      .st6, .st7 {
        fill: #231f20;
      }

      .st1 {
        stroke-width: 1.5px;
      }

      .st7 {
        font-family: MyriadPro-Regular, 'Myriad Pro';
        font-size: 24px;
      }

      .st2 {
        fill: #f7ec13;
      }

      .st2, .st5 {
        stroke-width: 1.2px;
      }

      .st3 {
        stroke-width: 1.51px;
      }

      .st3, .st4 {
        fill: #fff;
      }

      .st4 {
        stroke-width: 1.68px;
      }

      .st5 {
        fill: #ed2024;
      }
    </style>
  </defs>
  <polyline class="st4" points="74.13 39.86 74.13 27 315 27 315 72 74.13 72 74.13 59.14"/>
  <rect class="st3" x="74.13" y="108" width="240.87" height="135"/>
  <g>
    <g>
      <circle class="st5" cx="14.49" cy="49.5" r="5.49"/>
      <line class="st5" x1="14.49" y1="46.14" x2="14.49" y2="52.86"/>
      <line class="st5" x1="11.13" y1="49.5" x2="17.84" y2="49.5"/>
    </g>
    <g>
      <line class="st1" x1="24.72" y1="49.5" x2="58.42" y2="49.5"/>
      <polygon class="st6" points="55.26 53.67 57.03 49.5 55.26 45.33 65.13 49.5 55.26 53.67"/>
    </g>
  </g>
  <g>
    <g>
      <circle class="st5" cx="14.49" cy="126" r="5.49"/>
      <line class="st5" x1="14.49" y1="122.64" x2="14.49" y2="129.36"/>
      <line class="st5" x1="11.13" y1="126" x2="17.84" y2="126"/>
    </g>
    <g>
      <line class="st1" x1="24.72" y1="126" x2="58.42" y2="126"/>
      <polygon class="st6" points="55.26 130.17 57.03 126 55.26 121.83 65.13 126 55.26 130.17"/>
    </g>
  </g>
  <g>
    <g>
      <circle class="st5" cx="14.49" cy="160.17" r="5.49"/>
      <line class="st5" x1="14.49" y1="156.82" x2="14.49" y2="163.53"/>
      <line class="st5" x1="11.13" y1="160.17" x2="17.84" y2="160.17"/>
    </g>
    <g>
      <line class="st1" x1="24.72" y1="160.17" x2="58.42" y2="160.17"/>
      <polygon class="st6" points="55.26 164.34 57.03 160.17 55.26 156.01 65.13 160.17 55.26 164.34"/>
    </g>
  </g>
  <g>
    <g>
      <circle class="st5" cx="14.49" cy="194.34" r="5.49"/>
      <line class="st5" x1="14.49" y1="190.99" x2="14.49" y2="197.7"/>
      <line class="st5" x1="11.13" y1="194.34" x2="17.84" y2="194.34"/>
    </g>
    <g>
      <line class="st1" x1="24.72" y1="194.34" x2="58.42" y2="194.34"/>
      <polygon class="st6" points="55.26 198.51 57.03 194.34 55.26 190.18 65.13 194.34 55.26 198.51"/>
    </g>
  </g>
  <g>
    <g>
      <circle class="st5" cx="14.49" cy="228.51" r="5.49"/>
      <line class="st5" x1="14.49" y1="225.16" x2="14.49" y2="231.87"/>
      <line class="st5" x1="11.13" y1="228.51" x2="17.84" y2="228.51"/>
    </g>
    <g>
      <line class="st1" x1="24.72" y1="228.51" x2="58.42" y2="228.51"/>
      <polygon class="st6" points="55.26 232.68 57.03 228.51 55.26 224.35 65.13 228.51 55.26 232.68"/>
    </g>
  </g>
  <text class="st7" transform="translate(324 27)"><tspan x="0" y="0">Top View</tspan></text>
  <text class="st7" transform="translate(324 126)"><tspan x="0" y="0">Side View</tspan></text>
  <line class="st0" x1="423" y1="49.5" x2="315" y2="49.5"/>
  <line class="st0" x1="423" y1="175.5" x2="315" y2="175.5"/>
  <g>
    <circle class="st2" cx="382.12" cy="40.88" r="4.12"/>
    <line class="st5" x1="379.6" y1="40.88" x2="384.63" y2="40.88"/>
  </g>
  <g>
    <line class="st1" x1="373.22" y1="40.88" x2="330.72" y2="40.88"/>
    <polygon class="st6" points="333.88 36.72 332.11 40.88 333.88 45.05 324 40.88 333.88 36.72"/>
  </g>
  <g>
    <circle class="st2" cx="394.37" cy="166.12" r="4.12"/>
    <line class="st5" x1="391.85" y1="166.12" x2="396.89" y2="166.12"/>
  </g>
  <g>
    <line class="st1" x1="373.22" y1="166.12" x2="330.72" y2="166.12"/>
    <polygon class="st6" points="333.88 161.95 332.11 166.12 333.88 170.28 324 166.12 333.88 161.95"/>
  </g>
  <g>
    <circle class="st2" cx="418.88" cy="166.12" r="4.12"/>
    <line class="st5" x1="416.37" y1="166.12" x2="421.4" y2="166.12"/>
  </g>
  <g>
    <circle class="st2" cx="382.12" cy="166.12" r="4.12"/>
    <line class="st5" x1="379.6" y1="166.12" x2="384.63" y2="166.12"/>
  </g>
  <g>
    <circle class="st2" cx="406.63" cy="166.12" r="4.12"/>
    <line class="st5" x1="404.11" y1="166.12" x2="409.15" y2="166.12"/>
  </g>
</svg>