<?xml version="1.0" encoding="utf-8"?>
<!-- Generator: Adobe Illustrator 22.0.1, SVG Export Plug-In . SVG Version: 6.00 Build 0)  -->
<svg version="1.1" id="Layer_1" xmlns="http://www.w3.org/2000/svg" xmlns:xlink="http://www.w3.org/1999/xlink" x="0px" y="0px"
	 viewBox="0 0 53 53" style="enable-background:new 0 0 53 53;" xml:space="preserve">
<g>
	<path d="M17.621582,20.6376953H7.0546875c-0.2763672,0-0.5,0.2236328-0.5,0.5s0.2236328,0.5,0.5,0.5H17.621582
		c0.2763672,0,0.5-0.2236328,0.5-0.5S17.8979492,20.6376953,17.621582,20.6376953z"/>
	<path d="M17.621582,27.6826172H7.0546875c-0.2763672,0-0.5,0.2236328-0.5,0.5s0.2236328,0.5,0.5,0.5H17.621582
		c0.2763672,0,0.5-0.2236328,0.5-0.5S17.8979492,27.6826172,17.621582,27.6826172z"/>
	<path d="M17.621582,34.7280273H7.0546875c-0.2763672,0-0.5,0.2236328-0.5,0.5s0.2236328,0.5,0.5,0.5H17.621582
		c0.2763672,0,0.5-0.2236328,0.5-0.5S17.8979492,34.7280273,17.621582,34.7280273z"/>
	<path d="M44.5083008,19.5522461H26.0249023c-0.2763672,0-0.5,0.2236328-0.5,0.5v5.984375c0,0.2763672,0.2236328,0.5,0.5,0.5
		h18.4833984c0.2763672,0,0.5-0.2236328,0.5-0.5v-5.984375C45.0083008,19.7758789,44.784668,19.5522461,44.5083008,19.5522461z
		 M44.0083008,25.5366211H26.5249023v-4.984375h17.4833984V25.5366211z"/>
	<path d="M32.9125977,35.9257813h-6.8876953c-0.2763672,0-0.5,0.2236328-0.5,0.5v7.762207c0,0.2763672,0.2236328,0.5,0.5,0.5
		h6.8876953c0.2763672,0,0.5-0.2236328,0.5-0.5v-7.762207C33.4125977,36.1494141,33.1889648,35.9257813,32.9125977,35.9257813z
		 M32.4125977,43.6879883h-5.8876953v-6.762207h5.8876953V43.6879883z"/>
	<path d="M44.5083008,43.6879883H36.71875c-0.2763672,0-0.5,0.2236328-0.5,0.5s0.2236328,0.5,0.5,0.5h7.7895508
		c0.2763672,0,0.5-0.2236328,0.5-0.5S44.784668,43.6879883,44.5083008,43.6879883z"/>
	<path d="M44.5083008,39.8071289H36.71875c-0.2763672,0-0.5,0.2236328-0.5,0.5s0.2236328,0.5,0.5,0.5h7.7895508
		c0.2763672,0,0.5-0.2236328,0.5-0.5S44.784668,39.8071289,44.5083008,39.8071289z"/>
	<path d="M44.5083008,35.9257813H36.71875c-0.2763672,0-0.5,0.2236328-0.5,0.5s0.2236328,0.5,0.5,0.5h7.7895508
		c0.2763672,0,0.5-0.2236328,0.5-0.5S44.784668,35.9257813,44.5083008,35.9257813z"/>
	<path d="M17.621582,41.7729492H7.0546875c-0.2763672,0-0.5,0.2236328-0.5,0.5s0.2236328,0.5,0.5,0.5H17.621582
		c0.2763672,0,0.5-0.2236328,0.5-0.5S17.8979492,41.7729492,17.621582,41.7729492z"/>
	<path d="M50.9946289,2.8520508c0-0.2763672-0.2236328-0.5-0.5-0.5H2.5c-0.2763672,0-0.5,0.2236328-0.5,0.5V14.097168
		c0,0.0111694,0.0056152,0.0205078,0.0063477,0.0314941v36.0192871c0,0.2763672,0.2236328,0.5,0.5,0.5h19.6640625H50.5
		c0.2763672,0,0.5-0.2236328,0.5-0.5V14.0922852c0-0.0094604-0.0048828-0.017334-0.0053711-0.0266724V2.8520508z
		 M49.9946289,3.3520508v10.2402344H22.1704102H3V3.3520508H49.9946289z M3.0063477,49.6479492V14.597168h18.6640625v35.0507813
		H3.0063477z M22.6704102,49.6479492V14.597168H50v35.0507813H22.6704102z"/>
	<path d="M36.5371094,8.9746094h0.6879883c0.2763672,0,0.5-0.2236328,0.5-0.5s-0.2236328-0.5-0.5-0.5h-0.6879883
		c-0.2763672,0-0.5,0.2236328-0.5,0.5S36.2607422,8.9746094,36.5371094,8.9746094z"/>
	<path d="M40.1791992,8.9746094h0.6875c0.2763672,0,0.5-0.2236328,0.5-0.5s-0.2236328-0.5-0.5-0.5h-0.6875
		c-0.2763672,0-0.5,0.2236328-0.5,0.5S39.902832,8.9746094,40.1791992,8.9746094z"/>
	<path d="M43.8208008,8.9746094h0.6875c0.2763672,0,0.5-0.2236328,0.5-0.5s-0.2236328-0.5-0.5-0.5h-0.6875
		c-0.2763672,0-0.5,0.2236328-0.5,0.5S43.5444336,8.9746094,43.8208008,8.9746094z"/>
	<path d="M8.4863281,8.9746094h9.6000977c0.2763672,0,0.5-0.2236328,0.5-0.5s-0.2236328-0.5-0.5-0.5H8.4863281
		c-0.2763672,0-0.5,0.2236328-0.5,0.5S8.2099609,8.9746094,8.4863281,8.9746094z"/>
</g>
</svg>
